{
	"asset":{
		"generator":"Khronos glTF Blender I/O v4.0.44",
		"version":"2.0"
	},
	"extensionsUsed":[
		"KHR_materials_transmission",
		"KHR_materials_specular"
	],
	"scene":0,
	"scenes":[
		{
			"name":"Scene",
			"nodes":[
				0
			]
		}
	],
	"nodes":[
		{
			"mesh":0,
			"name":"BouquetFlowers"
		}
	],
	"materials":[
		{
			"doubleSided":true,
			"extensions":{
				"KHR_materials_transmission":{
					"transmissionFactor":1
				},
				"KHR_materials_specular":{
					"specularFactor":0
				}
			},
			"name":"_13504_Bride_Bouquet_v1_L113504BrideBouquet_rose_top",
			"pbrMetallicRoughness":{
				"baseColorTexture":{
					"index":0
				},
				"metallicFactor":0,
				"roughnessFactor":0.8999999761581421
			}
		},
		{
			"doubleSided":true,
			"extensions":{
				"KHR_materials_transmission":{
					"transmissionFactor":1
				},
				"KHR_materials_specular":{
					"specularFactor":0.8820000290870667
				}
			},
			"name":"_13504_Bride_Bouquet_v1_L113504BrideBouquet_roseleaves",
			"pbrMetallicRoughness":{
				"baseColorFactor":[
					0.14900000393390656,
					0.3490000069141388,
					0.06270000338554382,
					1
				],
				"metallicFactor":0,
				"roughnessFactor":0.8356832265853882
			}
		},
		{
			"doubleSided":true,
			"extensions":{
				"KHR_materials_transmission":{
					"transmissionFactor":1
				},
				"KHR_materials_specular":{
					"specularFactor":0.4859999716281891
				}
			},
			"name":"_13504_Bride_Bouquet_v1_L113504BrideBouquet_paper",
			"pbrMetallicRoughness":{
				"baseColorFactor":[
					0.7411999702453613,
					0.8077999949455261,
					1,
					1
				],
				"metallicFactor":0,
				"roughnessFactor":0.800000011920929
			}
		},
		{
			"alphaMode":"BLEND",
			"doubleSided":true,
			"extensions":{
				"KHR_materials_transmission":{
					"transmissionFactor":0.8199999928474426
				},
				"KHR_materials_specular":{
					"specularFactor":0.3240000009536743
				}
			},
			"name":"_13504_Bride_Bouquet_v1_L113504BrideBouquet_ribbon",
			"pbrMetallicRoughness":{
				"baseColorFactor":[
					0.9685999751091003,
					0.9764999747276306,
					1,
					0.8199999928474426
				],
				"metallicFactor":0
			}
		}
	],
	"meshes":[
		{
			"name":"BouquetFlowers",
			"primitives":[
				{
					"attributes":{
						"POSITION":0,
						"NORMAL":1,
						"TEXCOORD_0":2
					},
					"indices":3,
					"material":0
				},
				{
					"attributes":{
						"POSITION":4,
						"NORMAL":5,
						"TEXCOORD_0":6
					},
					"indices":7,
					"material":1
				},
				{
					"attributes":{
						"POSITION":8,
						"NORMAL":9,
						"TEXCOORD_0":10
					},
					"indices":11,
					"material":2
				},
				{
					"attributes":{
						"POSITION":12,
						"NORMAL":13,
						"TEXCOORD_0":14
					},
					"indices":15,
					"material":3
				}
			]
		}
	],
	"textures":[
		{
			"sampler":0,
			"source":0
		}
	],
	"images":[
		{
			"mimeType":"image/jpeg",
			"name":"13504BrideBouquet_diffuse",
			"uri":"13504BrideBouquet_diffuse.jpg"
		}
	],
	"accessors":[
		{
			"bufferView":0,
			"componentType":5126,
			"count":40571,
			"max":[
				14.83521842956543,
				24.45766830444336,
				13.721631050109863
			],
			"min":[
				-13.541181564331055,
				11.16126823425293,
				-14.36996841430664
			],
			"type":"VEC3"
		},
		{
			"bufferView":1,
			"componentType":5126,
			"count":40571,
			"type":"VEC3"
		},
		{
			"bufferView":2,
			"componentType":5126,
			"count":40571,
			"type":"VEC2"
		},
		{
			"bufferView":3,
			"componentType":5123,
			"count":191052,
			"type":"SCALAR"
		},
		{
			"bufferView":4,
			"componentType":5126,
			"count":23140,
			"max":[
				13.434417724609375,
				18.981468200683594,
				13.706331253051758
			],
			"min":[
				-13.032281875610352,
				7.275167465209961,
				-13.962669372558594
			],
			"type":"VEC3"
		},
		{
			"bufferView":5,
			"componentType":5126,
			"count":23140,
			"type":"VEC3"
		},
		{
			"bufferView":6,
			"componentType":5126,
			"count":23140,
			"type":"VEC2"
		},
		{
			"bufferView":7,
			"componentType":5123,
			"count":85380,
			"type":"SCALAR"
		},
		{
			"bufferView":8,
			"componentType":5126,
			"count":2232,
			"max":[
				11.76321792602539,
				9.999067306518555,
				11.370131492614746
			],
			"min":[
				-11.143781661987305,
				-11.1907320022583,
				-11.05176830291748
			],
			"type":"VEC3"
		},
		{
			"bufferView":9,
			"componentType":5126,
			"count":2232,
			"type":"VEC3"
		},
		{
			"bufferView":10,
			"componentType":5126,
			"count":2232,
			"type":"VEC2"
		},
		{
			"bufferView":11,
			"componentType":5123,
			"count":12288,
			"type":"SCALAR"
		},
		{
			"bufferView":12,
			"componentType":5126,
			"count":6374,
			"max":[
				7.938017845153809,
				6.946866989135742,
				8.043631553649902
			],
			"min":[
				-8.370981216430664,
				-15.330132484436035,
				-8.279068946838379
			],
			"type":"VEC3"
		},
		{
			"bufferView":13,
			"componentType":5126,
			"count":6374,
			"type":"VEC3"
		},
		{
			"bufferView":14,
			"componentType":5126,
			"count":6374,
			"type":"VEC2"
		},
		{
			"bufferView":15,
			"componentType":5123,
			"count":33648,
			"type":"SCALAR"
		}
	],
	"bufferViews":[
		{
			"buffer":0,
			"byteLength":486852,
			"byteOffset":0,
			"target":34962
		},
		{
			"buffer":0,
			"byteLength":486852,
			"byteOffset":486852,
			"target":34962
		},
		{
			"buffer":0,
			"byteLength":324568,
			"byteOffset":973704,
			"target":34962
		},
		{
			"buffer":0,
			"byteLength":382104,
			"byteOffset":1298272,
			"target":34963
		},
		{
			"buffer":0,
			"byteLength":277680,
			"byteOffset":1680376,
			"target":34962
		},
		{
			"buffer":0,
			"byteLength":277680,
			"byteOffset":1958056,
			"target":34962
		},
		{
			"buffer":0,
			"byteLength":185120,
			"byteOffset":2235736,
			"target":34962
		},
		{
			"buffer":0,
			"byteLength":170760,
			"byteOffset":2420856,
			"target":34963
		},
		{
			"buffer":0,
			"byteLength":26784,
			"byteOffset":2591616,
			"target":34962
		},
		{
			"buffer":0,
			"byteLength":26784,
			"byteOffset":2618400,
			"target":34962
		},
		{
			"buffer":0,
			"byteLength":17856,
			"byteOffset":2645184,
			"target":34962
		},
		{
			"buffer":0,
			"byteLength":24576,
			"byteOffset":2663040,
			"target":34963
		},
		{
			"buffer":0,
			"byteLength":76488,
			"byteOffset":2687616,
			"target":34962
		},
		{
			"buffer":0,
			"byteLength":76488,
			"byteOffset":2764104,
			"target":34962
		},
		{
			"buffer":0,
			"byteLength":50992,
			"byteOffset":2840592,
			"target":34962
		},
		{
			"buffer":0,
			"byteLength":67296,
			"byteOffset":2891584,
			"target":34963
		}
	],
	"samplers":[
		{
			"magFilter":9729,
			"minFilter":9987
		}
	],
	"buffers":[
		{
			"byteLength":2958880,
			"uri":"scene.bin"
		}
	]
}
